<?xml version="1.0" standalone="no"?>
<!DOCTYPE svg PUBLIC "-//W3C//DTD SVG 20010904//EN" "http://www.w3.org/TR/2001/REC-SVG-20010904/DTD/svg10.dtd">
<svg version="1.0" xmlns="http://www.w3.org/2000/svg" width="700.000000pt" height="700.000000pt" viewBox="0 0 700.000000 700.000000" preserveAspectRatio="xMidYMid meet">
    <metadata>
Created by potrace 1.14, written by Peter Selinger 2001-2017
</metadata>
    <g transform="translate(0.000000,700.000000) scale(0.100000,-0.100000)" fill="#000000" stroke="none">
        <path d="M3278 6995 c-1 -1 -42 -5 -89 -9 -47 -4 -95 -8 -105 -10 -10 -2 -41
-7 -69 -10 -333 -43 -716 -159 -1030 -312 -180 -87 -448 -247 -555 -331 -8 -6
-51 -40 -95 -74 -340 -264 -650 -624 -875 -1014 -47 -81 -170 -327 -170 -339
0 -3 -11 -29 -24 -58 -52 -116 -142 -389 -162 -491 -2 -10 -6 -27 -9 -37 -3
-10 -8 -29 -10 -42 -3 -13 -11 -57 -20 -98 -22 -115 -30 -160 -41 -255 -26
-230 -26 -667 1 -826 2 -13 6 -46 9 -74 9 -78 23 -156 51 -285 31 -142 109
-393 175 -555 52 -129 174 -371 249 -493 l70 -113 -202 -203 c-111 -112 -211
-214 -222 -227 -49 -58 -102 -159 -131 -255 -22 -73 -25 -274 -5 -349 45 -167
144 -312 276 -404 134 -93 266 -132 430 -127 117 4 199 27 309 84 82 43 107
65 312 269 l222 222 114 -68 c310 -186 604 -311 938 -397 154 -40 298 -69 395
-79 22 -3 51 -7 63 -9 132 -27 680 -28 844 -1 13 2 46 7 73 10 72 10 86 12
120 19 17 3 44 8 60 11 726 137 1438 544 1935 1104 36 41 70 79 76 85 6 6 48
61 94 121 151 199 283 416 388 638 23 49 42 91 42 93 0 2 11 27 24 56 57 127
152 426 182 573 14 70 44 236 48 270 3 22 8 62 12 90 3 27 8 61 10 75 9 48 11
526 4 605 -15 157 -21 210 -25 225 -2 8 -7 35 -10 60 -8 60 -40 212 -71 332
-76 301 -220 638 -400 937 l-62 103 210 212 c116 116 227 236 248 266 160 239
157 553 -9 793 -46 68 -173 187 -199 187 -6 0 -12 4 -14 8 -1 4 -29 20 -62 35
-183 86 -425 85 -599 -4 -103 -52 -138 -82 -356 -300 -183 -182 -214 -209
-227 -198 -72 60 -432 247 -612 318 -230 92 -554 182 -742 206 -19 3 -46 7
-60 10 -13 2 -52 7 -86 11 -33 3 -74 8 -90 10 -32 5 -540 14 -546 9z" />
    </g>
</svg>
